<?xml version="1.0" encoding="UTF-8" standalone="no"?>
<!-- Created with Inkscape (http://www.inkscape.org/) -->

<svg
   xmlns:dc="http://purl.org/dc/elements/1.1/"
   xmlns:cc="http://creativecommons.org/ns#"
   xmlns:rdf="http://www.w3.org/1999/02/22-rdf-syntax-ns#"
   xmlns:svg="http://www.w3.org/2000/svg"
   xmlns="http://www.w3.org/2000/svg"
   xmlns:sodipodi="http://sodipodi.sourceforge.net/DTD/sodipodi-0.dtd"
   xmlns:inkscape="http://www.inkscape.org/namespaces/inkscape"
   width="744.09448819"
   height="1052.3622047"
   id="svg2"
   version="1.1"
   inkscape:version="0.48.2 r9819"
   sodipodi:docname="heel_boxes_.svg">
  <defs
     id="defs4" />
  <sodipodi:namedview
     id="base"
     pagecolor="#ffffff"
     bordercolor="#666666"
     borderopacity="1.0"
     inkscape:pageopacity="0.0"
     inkscape:pageshadow="2"
     inkscape:zoom="1.1692473"
     inkscape:cx="371.01769"
     inkscape:cy="654.00648"
     inkscape:document-units="px"
     inkscape:current-layer="layer1"
     showgrid="false"
     showguides="true"
     inkscape:guide-bbox="true"
     inkscape:window-width="1186"
     inkscape:window-height="845"
     inkscape:window-x="261"
     inkscape:window-y="0"
     inkscape:window-maximized="0" />
  <metadata
     id="metadata7">
    <rdf:RDF>
      <cc:Work
         rdf:about="">
        <dc:format>image/svg+xml</dc:format>
        <dc:type
           rdf:resource="http://purl.org/dc/dcmitype/StillImage" />
        <dc:title />
      </cc:Work>
    </rdf:RDF>
  </metadata>
  <g
     inkscape:label="Layer 1"
     inkscape:groupmode="layer"
     id="layer1">
    <path
       id="rect4491"
       style="fill:none;stroke:#000000;stroke-width:1.25;stroke-linecap:round;stroke-linejoin:bevel;stroke-miterlimit:4;stroke-opacity:1;stroke-dasharray:none;stroke-dashoffset:0"
       d="m 258.46923,217.84702 c 0,23.49223 0,34.23126 0,57.72349 l 8.05127,0 0,28.25643 -8.05127,0 0,58.97344 m 27.93897,-144.95336 0,11.89543 -10.97378,0 0,-11.89543 -16.96519,0 m 27.93897,0 17.26755,0 0,66.22211 -12.92666,0 0,15.14941 12.92666,0 0,63.58184 -17.26755,0 m 0,0 0,-11.89544 -10.97378,0 0,11.89544 -16.96519,0"
       inkscape:connector-curvature="0"
       sodipodi:nodetypes="cccccccccccccccccccccccc" />
    <path
       id="rect4493"
       style="fill:none;stroke:#000000;stroke-width:1.25;stroke-linecap:round;stroke-linejoin:bevel;stroke-miterlimit:4;stroke-opacity:1;stroke-dasharray:none;stroke-dashoffset:0"
       d="m 317.41967,390.60626 0,123.46478 m 27.93899,-123.46477 0,-10.94431 -10.97379,0 0,10.94431 -16.9652,0 m 27.93899,0 17.26754,0 0,54.74637 -11.4017,0 0,15.14941 11.4017,0 0,53.56899 -17.26754,-0.10176 m 0,0 0,10.6468 -10.97379,0 0,-10.6468 -16.9652,0.10176"
       inkscape:connector-curvature="0"
       sodipodi:nodetypes="cccccccccccccccccccc" />
    <rect
       style="fill:none;stroke:#000000;stroke-width:1.25;stroke-linecap:round;stroke-linejoin:bevel;stroke-miterlimit:4;stroke-opacity:1;stroke-dasharray:none;stroke-dashoffset:0"
       id="rect5379"
       width="41.969334"
       height="10.143743"
       x="242.72986"
       y="-345.41025"
       transform="matrix(0,1,-1,0,0,0)" />
    <rect
       y="-345.10901"
       x="411.05734"
       height="10.172146"
       width="13.506682"
       id="rect5381"
       style="fill:none;stroke:#000000;stroke-width:1.22312975;stroke-linecap:round;stroke-linejoin:bevel;stroke-miterlimit:4;stroke-opacity:1;stroke-dasharray:none;stroke-dashoffset:0"
       transform="matrix(0,1,-1,0,0,0)" />
    <rect
       transform="matrix(0,1,-1,0,0,0)"
       y="-118.04346"
       x="279.97906"
       height="10.453394"
       width="23.04784"
       id="rect5402"
       style="fill:none;stroke:#000000;stroke-width:0.94034809;stroke-linecap:round;stroke-linejoin:bevel;stroke-miterlimit:4;stroke-opacity:1;stroke-dasharray:none;stroke-dashoffset:0" />
    <rect
       transform="matrix(0,1,-1,0,0,0)"
       style="fill:none;stroke:#000000;stroke-width:1.15071738;stroke-linecap:round;stroke-linejoin:bevel;stroke-miterlimit:4;stroke-opacity:1;stroke-dasharray:none;stroke-dashoffset:0"
       id="rect5427"
       width="22.837471"
       height="10.244559"
       x="245.10515"
       y="-287.4043" />
    <path
       sodipodi:nodetypes="ccccccccccccccccccccc"
       inkscape:connector-curvature="0"
       d="m 222.46937,397.4699 -52.97346,0 0,-8.44648 -14.09037,0 0,8.44648 -55.73151,0 0,56.43983 -10.81647,0 0,14.41811 10.81647,0 0,51.56951 55.73151,0 0,10.87965 14.09037,0 0,-10.87965 52.97346,0 0,-51.56951 9.74516,0 0,-14.41811 -9.74516,0 z"
       style="fill:none;stroke:#000000;stroke-width:1.25;stroke-linecap:round;stroke-linejoin:bevel;stroke-miterlimit:4;stroke-opacity:1;stroke-dasharray:none;stroke-dashoffset:0"
       id="path5429" />
    <path
       sodipodi:nodetypes="cccccccccccccccccccc"
       inkscape:connector-curvature="0"
       d="m 317.73511,220.87079 0,144.95336 m 27.93897,-144.95336 0,11.89543 -10.97378,0 0,-11.89543 -16.96519,0 m 27.93897,0 17.26755,0 0,66.22211 -12.92666,0 0,15.14941 12.92666,0 0,63.58184 -17.26755,0 m 0,0 0,-11.89544 -10.97378,0 0,11.89544 -16.96519,0"
       style="fill:none;stroke:#000000;stroke-width:1.25;stroke-linecap:round;stroke-linejoin:bevel;stroke-miterlimit:4;stroke-opacity:1;stroke-dasharray:none;stroke-dashoffset:0"
       id="path5431" />
    <path
       sodipodi:nodetypes="cccccccccccccccccccc"
       inkscape:connector-curvature="0"
       d="m 254.52526,393.63003 0,123.46479 m 27.93899,-123.46477 0,-10.94432 -10.97379,0 0,10.94432 -16.9652,0 m 27.93899,0 17.26755,0 0,54.74638 -11.4017,0 0,15.1494 11.4017,0 0,53.56899 -17.26755,-0.10177 m 0,0 0,10.6468 -10.97379,0 0,-10.6468 -16.9652,0.10177"
       style="fill:none;stroke:#000000;stroke-width:1.25;stroke-linecap:round;stroke-linejoin:bevel;stroke-miterlimit:4;stroke-opacity:1;stroke-dasharray:none;stroke-dashoffset:0"
       id="path5433" />
    <path
       sodipodi:type="arc"
       style="fill:none;stroke:#000000;stroke-width:1.61830032;stroke-linecap:round;stroke-linejoin:bevel;stroke-miterlimit:4;stroke-opacity:1;stroke-dasharray:none;stroke-dashoffset:0"
       id="path5441"
       sodipodi:cx="500.53058"
       sodipodi:cy="364.95337"
       sodipodi:rx="4.0602365"
       sodipodi:ry="4.0602365"
       d="m 504.59082,364.95337 a 4.0602365,4.0602365 0 1 1 -8.12048,0 4.0602365,4.0602365 0 1 1 8.12048,0 z"
       transform="matrix(0.77241535,0,0,0.77241535,93.26766,-33.066158)" />
    <path
       sodipodi:nodetypes="ccccccccccccc"
       inkscape:connector-curvature="0"
       d="m 526.44781,220.87079 -140.77378,0 0,144.72983 140.77378,0 0,-60.74896 -7.93705,0 0,-4.71617 -35.33373,0 0,-28.32489 35.33373,0 0,-5.60816 7.93705,0 0,-45.33165"
       style="fill:none;stroke:#000000;stroke-width:1.25;stroke-linecap:round;stroke-linejoin:bevel;stroke-miterlimit:4;stroke-opacity:1;stroke-dasharray:none;stroke-dashoffset:0"
       id="path5445" />
    <path
       sodipodi:nodetypes="cccccccccccccccccccccccc"
       inkscape:connector-curvature="0"
       d="m 550.46923,220.87079 c 0,23.49223 0,21.83942 0,45.33165 l 8.05127,0 0,38.64922 -8.05127,0 0,60.97249 m 27.93897,-144.95336 0,11.89543 -10.97378,0 0,-11.89543 -16.96519,0 m 27.93897,0 17.26755,0 0,66.22211 -12.92666,0 0,15.14941 12.92666,0 0,63.58184 -17.26755,0 m 0,0 0,-11.89544 -10.97378,0 0,11.89544 -16.96519,0"
       style="fill:none;stroke:#000000;stroke-width:1.25;stroke-linecap:round;stroke-linejoin:bevel;stroke-miterlimit:4;stroke-opacity:1;stroke-dasharray:none;stroke-dashoffset:0"
       id="path5447" />
    <path
       sodipodi:nodetypes="cccccccccccccccccccc"
       inkscape:connector-curvature="0"
       d="m 609.41967,390.60626 0,123.46478 m 27.93899,-123.46477 0,-10.94431 -10.97379,0 0,10.94431 -16.9652,0 m 27.93899,0 17.26754,0 0,54.74637 -11.4017,0 0,15.14941 11.4017,0 0,53.56899 -17.26754,-0.10176 m 0,0 0,10.6468 -10.97379,0 0,-10.6468 -16.9652,0.10176"
       style="fill:none;stroke:#000000;stroke-width:1.25;stroke-linecap:round;stroke-linejoin:bevel;stroke-miterlimit:4;stroke-opacity:1;stroke-dasharray:none;stroke-dashoffset:0"
       id="path5449" />
    <rect
       transform="matrix(0,1,-1,0,0,0)"
       style="fill:none;stroke:#000000;stroke-width:1.22312975;stroke-linecap:round;stroke-linejoin:bevel;stroke-miterlimit:4;stroke-opacity:1;stroke-dasharray:none;stroke-dashoffset:0"
       id="rect5453"
       width="13.506682"
       height="10.172146"
       x="253.3548"
       y="-638.15857" />
    <path
       id="path5459"
       style="fill:none;stroke:#000000;stroke-width:1.25;stroke-linecap:round;stroke-linejoin:bevel;stroke-miterlimit:4;stroke-opacity:1;stroke-dasharray:none;stroke-dashoffset:0"
       d="m 514.46937,397.4699 -52.97346,0 0,-8.44648 -14.09037,0 0,8.44648 -55.73151,0 0,56.43983 -10.81647,0 0,14.41811 10.81647,0 0,51.56951 55.73151,0 0,10.87965 14.09037,0 0,-10.87965 52.97346,0 0,-51.56951 9.74516,0 0,-14.41811 -9.74516,0 z"
       inkscape:connector-curvature="0"
       sodipodi:nodetypes="ccccccccccccccccccccc" />
    <path
       id="path5461"
       style="fill:none;stroke:#000000;stroke-width:1.25;stroke-linecap:round;stroke-linejoin:bevel;stroke-miterlimit:4;stroke-opacity:1;stroke-dasharray:none;stroke-dashoffset:0"
       d="m 609.73511,220.87079 0,144.95336 m 27.93897,-144.95336 0,11.89543 -10.97378,0 0,-11.89543 -16.96519,0 m 27.93897,0 17.26755,0 0,66.22211 -12.92666,0 0,15.14941 12.92666,0 0,63.58184 -17.26755,0 m 0,0 0,-11.89544 -10.97378,0 0,11.89544 -16.96519,0"
       inkscape:connector-curvature="0"
       sodipodi:nodetypes="cccccccccccccccccccc" />
    <path
       id="path5463"
       style="fill:none;stroke:#000000;stroke-width:1.25;stroke-linecap:round;stroke-linejoin:bevel;stroke-miterlimit:4;stroke-opacity:1;stroke-dasharray:none;stroke-dashoffset:0"
       d="m 546.52526,393.63003 0,123.46479 m 27.93899,-123.46477 0,-10.94432 -10.97379,0 0,10.94432 -16.9652,0 m 27.93899,0 17.26755,0 0,54.74638 -11.4017,0 0,15.1494 11.4017,0 0,53.56899 -17.26755,-0.10177 m 0,0 0,10.6468 -10.97379,0 0,-10.6468 -16.9652,0.10177"
       inkscape:connector-curvature="0"
       sodipodi:nodetypes="cccccccccccccccccccc" />
    <rect
       transform="matrix(0,-1,1,0,0,0)"
       style="fill:none;stroke:#000000;stroke-width:1.138587;stroke-linecap:round;stroke-linejoin:bevel;stroke-miterlimit:4;stroke-opacity:1;stroke-dasharray:none;stroke-dashoffset:0"
       id="rect5467"
       width="42.444092"
       height="23.664562"
       x="-349.87326"
       y="559.26935" />
    <path
       transform="matrix(0.77241535,0,0,0.77241535,-198.73234,-33.066158)"
       d="m 504.59082,364.95337 a 4.0602365,4.0602365 0 1 1 -8.12048,0 4.0602365,4.0602365 0 1 1 8.12048,0 z"
       sodipodi:ry="4.0602365"
       sodipodi:rx="4.0602365"
       sodipodi:cy="364.95337"
       sodipodi:cx="500.53058"
       id="path3015"
       style="fill:none;stroke:#000000;stroke-width:1.61830032;stroke-linecap:round;stroke-linejoin:bevel;stroke-miterlimit:4;stroke-opacity:1;stroke-dasharray:none;stroke-dashoffset:0"
       sodipodi:type="arc" />
    <path
       id="path3017"
       style="fill:none;stroke:#000000;stroke-width:1.25;stroke-linecap:round;stroke-linejoin:bevel;stroke-miterlimit:4;stroke-opacity:1;stroke-dasharray:none;stroke-dashoffset:0"
       d="m 234.44781,220.87079 -140.77378,0 0,144.72983 140.77378,0 0,-60.74896 -7.93705,0 0,-4.71617 -35.33373,0 0,-28.32489 35.33373,0 0,-5.60816 7.93705,0 0,-45.33165"
       inkscape:connector-curvature="0"
       sodipodi:nodetypes="ccccccccccccc" />
    <rect
       y="267.62872"
       x="-348.16278"
       height="23.664562"
       width="42.444092"
       id="rect3019"
       style="fill:none;stroke:#000000;stroke-width:1.138587;stroke-linecap:round;stroke-linejoin:bevel;stroke-miterlimit:4;stroke-opacity:1;stroke-dasharray:none;stroke-dashoffset:0"
       transform="matrix(0,-1,1,0,0,0)" />
  </g>
</svg>
