<?xml version="1.0" encoding="UTF-8" standalone="no"?>
<!-- Created with Inkscape (http://www.inkscape.org/) -->

<svg
   xmlns:dc="http://purl.org/dc/elements/1.1/"
   xmlns:cc="http://creativecommons.org/ns#"
   xmlns:rdf="http://www.w3.org/1999/02/22-rdf-syntax-ns#"
   xmlns:svg="http://www.w3.org/2000/svg"
   xmlns="http://www.w3.org/2000/svg"
   xmlns:sodipodi="http://sodipodi.sourceforge.net/DTD/sodipodi-0.dtd"
   xmlns:inkscape="http://www.inkscape.org/namespaces/inkscape"
   width="744.09448819"
   height="1052.3622047"
   id="svg2"
   version="1.1"
   inkscape:version="0.48.2 r9819"
   sodipodi:docname="New document 1">
  <defs
     id="defs4" />
  <sodipodi:namedview
     id="base"
     pagecolor="#ffffff"
     bordercolor="#666666"
     borderopacity="1.0"
     inkscape:pageopacity="0.0"
     inkscape:pageshadow="2"
     inkscape:zoom="0.98994949"
     inkscape:cx="305.04694"
     inkscape:cy="571.88037"
     inkscape:document-units="px"
     inkscape:current-layer="layer1"
     showgrid="false"
     showguides="true"
     inkscape:guide-bbox="true"
     inkscape:window-width="1186"
     inkscape:window-height="845"
     inkscape:window-x="134"
     inkscape:window-y="0"
     inkscape:window-maximized="0" />
  <metadata
     id="metadata7">
    <rdf:RDF>
      <cc:Work
         rdf:about="">
        <dc:format>image/svg+xml</dc:format>
        <dc:type
           rdf:resource="http://purl.org/dc/dcmitype/StillImage" />
        <dc:title></dc:title>
      </cc:Work>
    </rdf:RDF>
  </metadata>
  <g
     inkscape:label="Layer 1"
     inkscape:groupmode="layer"
     id="layer1">
    <rect
       style="fill:none;stroke:#e72d55;stroke-width:1.25;stroke-linecap:round;stroke-linejoin:bevel;stroke-miterlimit:4;stroke-opacity:1;stroke-dasharray:none;stroke-dashoffset:0"
       id="rect2985"
       width="100.78905"
       height="118.50559"
       x="173.76913"
       y="382.94461"
       ry="0" />
    <g
       id="g3786"
       transform="translate(-262.63966,14.142136)"
       style="stroke-width:1.25;stroke-miterlimit:4;stroke-dasharray:none">
      <rect
         ry="0"
         y="411.92548"
         x="509.11688"
         height="32.324894"
         width="31.314709"
         id="rect3000"
         style="fill:none;stroke:#e72d55;stroke-width:1.25;stroke-linecap:round;stroke-linejoin:bevel;stroke-miterlimit:4;stroke-opacity:1;stroke-dasharray:none;stroke-dashoffset:0" />
      <rect
         transform="scale(1,-1)"
         ry="0"
         y="-479.04337"
         x="435.93811"
         height="102.17446"
         width="102.17446"
         id="rect2987"
         style="fill:none;stroke:#e72d55;stroke-width:1.25;stroke-linecap:round;stroke-linejoin:bevel;stroke-miterlimit:4;stroke-opacity:1;stroke-dasharray:none;stroke-dashoffset:0" />
      <path
         transform="matrix(0.90896614,0,0,0.90896614,52.131221,67.063223)"
         d="m 510.12703,364.95337 c 0,5.29997 -4.29648,9.59645 -9.59645,9.59645 -5.29997,0 -9.59645,-4.29648 -9.59645,-9.59645 0,-5.29997 4.29648,-9.59645 9.59645,-9.59645 5.29997,0 9.59645,4.29648 9.59645,9.59645 z"
         sodipodi:ry="9.5964489"
         sodipodi:rx="9.5964489"
         sodipodi:cy="364.95337"
         sodipodi:cx="500.53058"
         id="path3008"
         style="fill:none;stroke:#e72d55;stroke-width:1.37518874;stroke-linecap:round;stroke-linejoin:bevel;stroke-miterlimit:4;stroke-opacity:1;stroke-dasharray:none;stroke-dashoffset:0"
         sodipodi:type="arc" />
      <path
         sodipodi:type="arc"
         style="fill:none;stroke:#e72d55;stroke-width:1.61830031;stroke-linecap:round;stroke-linejoin:bevel;stroke-miterlimit:4;stroke-opacity:1;stroke-dasharray:none;stroke-dashoffset:0"
         id="path3010"
         sodipodi:cx="500.53058"
         sodipodi:cy="364.95337"
         sodipodi:rx="9.5964489"
         sodipodi:ry="9.5964489"
         d="m 510.12703,364.95337 c 0,5.29997 -4.29648,9.59645 -9.59645,9.59645 -5.29997,0 -9.59645,-4.29648 -9.59645,-9.59645 0,-5.29997 4.29648,-9.59645 9.59645,-9.59645 5.29997,0 9.59645,4.29648 9.59645,9.59645 z"
         transform="matrix(0.77241535,0,0,0.77241535,59.364836,105.28114)" />
      <path
         transform="matrix(0.77241535,0,0,0.77241535,143.2075,189.62888)"
         d="m 510.12703,364.95337 c 0,5.29997 -4.29648,9.59645 -9.59645,9.59645 -5.29997,0 -9.59645,-4.29648 -9.59645,-9.59645 0,-5.29997 4.29648,-9.59645 9.59645,-9.59645 5.29997,0 9.59645,4.29648 9.59645,9.59645 z"
         sodipodi:ry="9.5964489"
         sodipodi:rx="9.5964489"
         sodipodi:cy="364.95337"
         sodipodi:cx="500.53058"
         id="path3012"
         style="fill:none;stroke:#e72d55;stroke-width:1.61830031;stroke-linecap:round;stroke-linejoin:bevel;stroke-miterlimit:4;stroke-opacity:1;stroke-dasharray:none;stroke-dashoffset:0"
         sodipodi:type="arc" />
      <path
         sodipodi:type="arc"
         style="fill:none;stroke:#e72d55;stroke-width:1.61830031;stroke-linecap:round;stroke-linejoin:bevel;stroke-miterlimit:4;stroke-opacity:1;stroke-dasharray:none;stroke-dashoffset:0"
         id="path3014"
         sodipodi:cx="500.53058"
         sodipodi:cy="364.95337"
         sodipodi:rx="9.5964489"
         sodipodi:ry="9.5964489"
         d="m 510.12703,364.95337 c 0,5.29997 -4.29648,9.59645 -9.59645,9.59645 -5.29997,0 -9.59645,-4.29648 -9.59645,-9.59645 0,-5.29997 4.29648,-9.59645 9.59645,-9.59645 5.29997,0 9.59645,4.29648 9.59645,9.59645 z"
         transform="matrix(0.77241535,0,0,0.77241535,143.2075,105.28114)" />
      <path
         transform="matrix(0.77241535,0,0,0.77241535,58.859762,189.62888)"
         d="m 510.12703,364.95337 c 0,5.29997 -4.29648,9.59645 -9.59645,9.59645 -5.29997,0 -9.59645,-4.29648 -9.59645,-9.59645 0,-5.29997 4.29648,-9.59645 9.59645,-9.59645 5.29997,0 9.59645,4.29648 9.59645,9.59645 z"
         sodipodi:ry="9.5964489"
         sodipodi:rx="9.5964489"
         sodipodi:cy="364.95337"
         sodipodi:cx="500.53058"
         id="path3016"
         style="fill:none;stroke:#e72d55;stroke-width:1.61830031;stroke-linecap:round;stroke-linejoin:bevel;stroke-miterlimit:4;stroke-opacity:1;stroke-dasharray:none;stroke-dashoffset:0"
         sodipodi:type="arc" />
    </g>
    <rect
       style="fill:none;stroke:#e72d55;stroke-width:1.25;stroke-linecap:round;stroke-linejoin:bevel;stroke-miterlimit:4;stroke-opacity:1;stroke-dasharray:none;stroke-dashoffset:0"
       id="rect3795"
       width="140.38547"
       height="140.38547"
       x="161.67281"
       y="220.98396" />
    <path
       id="rect4491"
       style="fill:none;stroke:#e72d55;stroke-width:1.25;stroke-linecap:round;stroke-linejoin:bevel;stroke-miterlimit:4;stroke-opacity:1;stroke-dasharray:none;stroke-dashoffset:0"
       d="m 229.48911,597.60903 140.48067,0 M 229.48911,554.524 l 9.86225,0 0,16.9228 -9.86225,0 0,26.16223 m 0,-43.08503 0,-26.16217 140.48067,0 0,26.16217 m 0,0 -9.86226,0 0,16.9228 9.86226,0 0,26.16223"
       inkscape:connector-curvature="0"
       sodipodi:nodetypes="cccccccccccccc" />
    <path
       id="rect4493"
       style="fill:none;stroke:#e72d55;stroke-width:1.25;stroke-linecap:round;stroke-linejoin:bevel;stroke-miterlimit:4;stroke-opacity:1;stroke-dashoffset:0;stroke-dasharray:none"
       d="m 71.786101,599.16461 123.120689,0 m -123.120689,-43.13518 -8.91938,0 0,16.94249 8.91938,0 0,26.19269 m 0,-43.13518 0,-26.19263 123.120689,0 -0.10148,26.19263 m 0,0 8.6227,0 0,16.94249 -8.6227,0 0.10148,26.19269"
       inkscape:connector-curvature="0"
       sodipodi:nodetypes="cccccccccccccc" />
  </g>
</svg>
