<?xml version="1.0" encoding="UTF-8" standalone="no"?>
<!-- Created with Inkscape (http://www.inkscape.org/) -->

<svg
   xmlns:dc="http://purl.org/dc/elements/1.1/"
   xmlns:cc="http://creativecommons.org/ns#"
   xmlns:rdf="http://www.w3.org/1999/02/22-rdf-syntax-ns#"
   xmlns:svg="http://www.w3.org/2000/svg"
   xmlns="http://www.w3.org/2000/svg"
   xmlns:sodipodi="http://sodipodi.sourceforge.net/DTD/sodipodi-0.dtd"
   xmlns:inkscape="http://www.inkscape.org/namespaces/inkscape"
   width="744.09448819"
   height="1052.3622047"
   id="svg2"
   version="1.1"
   inkscape:version="0.48.3.1 r9886"
   sodipodi:docname="heel_boxes.dxf">
  <defs
     id="defs4" />
  <sodipodi:namedview
     id="base"
     pagecolor="#ffffff"
     bordercolor="#666666"
     borderopacity="1.0"
     inkscape:pageopacity="0.0"
     inkscape:pageshadow="2"
     inkscape:zoom="0.98994949"
     inkscape:cx="385.7096"
     inkscape:cy="875.96584"
     inkscape:document-units="px"
     inkscape:current-layer="layer1"
     showgrid="false"
     showguides="true"
     inkscape:guide-bbox="true"
     inkscape:window-width="1267"
     inkscape:window-height="715"
     inkscape:window-x="73"
     inkscape:window-y="24"
     inkscape:window-maximized="0" />
  <metadata
     id="metadata7">
    <rdf:RDF>
      <cc:Work
         rdf:about="">
        <dc:format>image/svg+xml</dc:format>
        <dc:type
           rdf:resource="http://purl.org/dc/dcmitype/StillImage" />
        <dc:title></dc:title>
      </cc:Work>
    </rdf:RDF>
  </metadata>
  <g
     inkscape:label="Layer 1"
     inkscape:groupmode="layer"
     id="layer1">
    <path
       id="path3017"
       style="fill:none;stroke:#000000;stroke-width:1.25;stroke-linecap:round;stroke-linejoin:bevel;stroke-miterlimit:4;stroke-opacity:1;stroke-dasharray:none;stroke-dashoffset:0"
       d="m 230.87431,81.25088 -128.77377,0 c -70.22057,-0.4474 -63.78132,161.38334 0,160.72983 l 128.77377,0 0,-76.74896 -7.93705,0 0,-4.71617 -35.33372,0 0,-28.32489 35.33372,0 0,-5.60816 7.93705,0 0,-45.33165"
       inkscape:connector-curvature="0"
       sodipodi:nodetypes="ccccccccccccc" />
    <rect
       transform="matrix(0,1,-1,0,0,0)"
       y="-96.71917"
       x="169.12291"
       height="12.473702"
       width="22.037712"
       id="rect5402"
       style="fill:none;stroke:#000000;stroke-width:0.94034809;stroke-linecap:round;stroke-linejoin:bevel;stroke-miterlimit:4;stroke-opacity:1;stroke-dasharray:none;stroke-dashoffset:0" />
    <rect
       style="fill:none;stroke:#000000;stroke-width:0.94034809;stroke-linecap:round;stroke-linejoin:bevel;stroke-miterlimit:4;stroke-opacity:1;stroke-dasharray:none;stroke-dashoffset:0"
       id="rect3020"
       width="34.15942"
       height="12.473234"
       x="109.81046"
       y="-96.498215"
       transform="matrix(0,1,-1,0,0,0)" />
    <path
       sodipodi:nodetypes="ccccccccccccc"
       inkscape:connector-curvature="0"
       d="m 444.85406,115.72933 -12.65491,0 0,-37.098577 -110.54203,0 c -60.27877,-0.409526 -54.75118,138.568277 0,137.970107 l 110.54203,0 0,-64.71348 12.65491,0 0,76.07295 -128.74464,0 c -63.7669,0.69669 -70.2047,-161.166181 0,-160.689219 l 128.74464,0 z"
       style="fill:none;stroke:#000000;stroke-width:1.29049003;stroke-linecap:round;stroke-linejoin:bevel;stroke-miterlimit:4;stroke-opacity:1;stroke-dasharray:none;stroke-dashoffset:0"
       id="path3009" />
    <path
       id="path3013"
       style="fill:none;stroke:#000000;stroke-width:1.29049003;stroke-linecap:round;stroke-linejoin:bevel;stroke-miterlimit:4;stroke-opacity:1;stroke-dasharray:none;stroke-dashoffset:0"
       d="m 644.19915,78.630753 -110.54203,0 c -60.27877,-0.409526 -54.75118,138.568277 0,137.970107 l 110.54203,0 0,-82.79251 z m 12.65491,149.329577 -128.74464,0 c -63.7669,0.69669 -70.2047,-161.166181 0,-160.689219 l 128.74464,0 0,66.537239 z"
       inkscape:connector-curvature="0"
       sodipodi:nodetypes="cccccccccccc" />
  </g>
</svg>
