999
DXF created by Inkscape
  0
SECTION
  2
HEADER
  9
$ACADVER
  1
AC1014
  9
$HANDSEED
  5
FFFF
  9
$MEASUREMENT
 70
     1
  0
ENDSEC
  0
SECTION
  2
TABLES
  0
TABLE
  2
VPORT
  5
8
330
0
100
AcDbSymbolTable
 70
     4
  0
VPORT
  5
2E
330
8
100
AcDbSymbolTableRecord
100
AcDbViewportTableRecord
  2
*ACTIVE
 70
     0
 10
0.0
 20
0.0
 11
1.0
 21
1.0
 12
210.0
 22
148.5
 13
0.0
 23
0.0
 14
10.0
 24
10.0
 15
10.0
 25
10.0
 16
0.0
 26
0.0
 36
1.0
 17
0.0
 27
0.0
 37
0.0
 40
341.0
 41
1.24
 42
50.0
 43
0.0
 44
0.0
 50
0.0
 51
0.0
 71
     0
 72
   100
 73
     1
 74
     3
 75
     0
 76
     0
 77
     0
 78
     0
  0
ENDTAB
  0
TABLE
  2
LTYPE
  5
5
330
0
100
AcDbSymbolTable
 70
     1
  0
LTYPE
  5
14
330
5
100
AcDbSymbolTableRecord
100
AcDbLinetypeTableRecord
  2
BYBLOCK
 70
     0
  3

 72
    65
 73
     0
 40
0.0
  0
LTYPE
  5
15
330
5
100
AcDbSymbolTableRecord
100
AcDbLinetypeTableRecord
  2
BYLAYER
 70
     0
  3

 72
    65
 73
     0
 40
0.0
  0
LTYPE
  5
16
330
5
100
AcDbSymbolTableRecord
100
AcDbLinetypeTableRecord
  2
CONTINUOUS
 70
     0
  3
Solid line
 72
    65
 73
     0
 40
0.0
  0
ENDTAB
  0
TABLE
  2
LAYER
  5
2
100
AcDbSymbolTable
 70
2
  0
LAYER
  5
50
100
AcDbSymbolTableRecord
100
AcDbLayerTableRecord
  2
0
 70
0
  6
CONTINUOUS
  0
LAYER
  5
51
100
AcDbSymbolTableRecord
100
AcDbLayerTableRecord
  2
Layer_1
 70
0
  6
CONTINUOUS
  0
ENDTAB
  0
TABLE
  2
STYLE
  5
3
330
0
100
AcDbSymbolTable
 70
     1
  0
STYLE
  5
11
330
3
100
AcDbSymbolTableRecord
100
AcDbTextStyleTableRecord
  2
STANDARD
 70
     0
 40
0.0
 41
1.0
 50
0.0
 71
     0
 42
2.5
  3
txt
  4

  0
ENDTAB
  0
TABLE
  2
VIEW
  5
6
330
0
100
AcDbSymbolTable
 70
     0
  0
ENDTAB
  0
TABLE
  2
UCS
  5
7
330
0
100
AcDbSymbolTable
 70
     0
  0
ENDTAB
  0
TABLE
  2
APPID
  5
9
330
0
100
AcDbSymbolTable
 70
     2
  0
APPID
  5
12
330
9
100
AcDbSymbolTableRecord
100
AcDbRegAppTableRecord
  2
ACAD
 70
     0
  0
ENDTAB
  0
TABLE
  2
DIMSTYLE
  5
A
330
0
100
AcDbSymbolTable
 70
     1
  0
DIMSTYLE
105
27
330
A
100
AcDbSymbolTableRecord
100
AcDbDimStyleTableRecord
  2
ISO-25
 70
     0
  3

  4

  5

  6

  7

 40
1.0
 41
2.5
 42
0.625
 43
3.75
 44
1.25
 45
0.0
 46
0.0
 47
0.0
 48
0.0
140
2.5
141
2.5
142
0.0
143
0.03937007874016
144
1.0
145
0.0
146
1.0
147
0.625
 71
     0
 72
     0
 73
     0
 74
     0
 75
     0
 76
     0
 77
     1
 78
     8
170
     0
171
     3
172
     1
173
     0
174
     0
175
     0
176
     0
177
     0
178
     0
270
     2
271
     2
272
     2
273
     2
274
     3
340
11
275
     0
280
     0
281
     0
282
     0
283
     0
284
     8
285
     0
286
     0
287
     3
288
     0
  0
ENDTAB
  0
TABLE
  2
BLOCK_RECORD
  5
1
330
0
100
AcDbSymbolTable
 70
     1
  0
BLOCK_RECORD
  5
1F
330
1
100
AcDbSymbolTableRecord
100
AcDbBlockTableRecord
  2
*MODEL_SPACE
  0
BLOCK_RECORD
  5
1B
330
1
100
AcDbSymbolTableRecord
100
AcDbBlockTableRecord
  2
*PAPER_SPACE
  0
ENDTAB
  0
ENDSEC
  0
SECTION
  2
BLOCKS
  0
BLOCK
  5
20
330
1F
100
AcDbEntity
  8
0
100
AcDbBlockBegin
  2
*MODEL_SPACE
 70
     0
 10
0.0
 20
0.0
 30
0.0
  3
*MODEL_SPACE
  1

  0
ENDBLK
  5
21
330
1F
100
AcDbEntity
  8
0
100
AcDbBlockEnd
  0
BLOCK
  5
1C
330
1B
100
AcDbEntity
 67
     1
  8
0
100
AcDbBlockBegin
  2
*PAPER_SPACE
  1

  0
ENDBLK
  5
1D
330
1B
100
AcDbEntity
 67
     1
  8
0
100
AcDbBlockEnd
  0
ENDSEC
  0
SECTION
  2
ENTITIES
  0
SPLINE
  5
100
100
AcDbEntity
  8
Layer_1
 62
7
100
AcDbSpline
 70
8
 71
3
 72
8
 73
4
 74
0
 40
0
 40
0
 40
0
 40
0
 40
1
 40
1
 40
1
 40
1
 10
55.420644
 20
223.443880
 30
0.0
 10
55.420644
 20
222.735069
 30
0.0
 10
55.042497
 20
222.080100
 30
0.0
 10
54.428648
 20
221.725694
 30
0.0
  0
SPLINE
  5
101
100
AcDbEntity
  8
Layer_1
 62
7
100
AcDbSpline
 70
8
 71
3
 72
8
 73
4
 74
0
 40
0
 40
0
 40
0
 40
0
 40
1
 40
1
 40
1
 40
1
 10
54.428648
 20
221.725694
 30
0.0
 10
53.814800
 20
221.371288
 30
0.0
 10
53.058507
 20
221.371288
 30
0.0
 10
52.444658
 20
221.725694
 30
0.0
  0
SPLINE
  5
102
100
AcDbEntity
  8
Layer_1
 62
7
100
AcDbSpline
 70
8
 71
3
 72
8
 73
4
 74
0
 40
0
 40
0
 40
0
 40
0
 40
1
 40
1
 40
1
 40
1
 10
52.444658
 20
221.725694
 30
0.0
 10
51.830809
 20
222.080100
 30
0.0
 10
51.452663
 20
222.735069
 30
0.0
 10
51.452663
 20
223.443880
 30
0.0
  0
SPLINE
  5
103
100
AcDbEntity
  8
Layer_1
 62
7
100
AcDbSpline
 70
8
 71
3
 72
8
 73
4
 74
0
 40
0
 40
0
 40
0
 40
0
 40
1
 40
1
 40
1
 40
1
 10
51.452663
 20
223.443880
 30
0.0
 10
51.452663
 20
224.152692
 30
0.0
 10
51.830809
 20
224.807661
 30
0.0
 10
52.444658
 20
225.162066
 30
0.0
  0
SPLINE
  5
104
100
AcDbEntity
  8
Layer_1
 62
7
100
AcDbSpline
 70
8
 71
3
 72
8
 73
4
 74
0
 40
0
 40
0
 40
0
 40
0
 40
1
 40
1
 40
1
 40
1
 10
52.444658
 20
225.162066
 30
0.0
 10
53.058507
 20
225.516472
 30
0.0
 10
53.814800
 20
225.516472
 30
0.0
 10
54.428649
 20
225.162066
 30
0.0
  0
SPLINE
  5
105
100
AcDbEntity
  8
Layer_1
 62
7
100
AcDbSpline
 70
8
 71
3
 72
8
 73
4
 74
0
 40
0
 40
0
 40
0
 40
0
 40
1
 40
1
 40
1
 40
1
 10
54.428649
 20
225.162066
 30
0.0
 10
55.042497
 20
224.807661
 30
0.0
 10
55.420644
 20
224.152692
 30
0.0
 10
55.420644
 20
223.443880
 30
0.0
  0
SPLINE
  5
106
100
AcDbEntity
  8
Layer_1
 62
7
100
AcDbSpline
 70
8
 71
3
 72
8
 73
4
 74
0
 40
0
 40
0
 40
0
 40
0
 40
1
 40
1
 40
1
 40
1
 10
39.921730
 20
226.774806
 30
0.0
 10
39.921730
 20
226.027422
 30
0.0
 10
39.523005
 20
225.336811
 30
0.0
 10
38.875751
 20
224.963119
 30
0.0
  0
SPLINE
  5
107
100
AcDbEntity
  8
Layer_1
 62
7
100
AcDbSpline
 70
8
 71
3
 72
8
 73
4
 74
0
 40
0
 40
0
 40
0
 40
0
 40
1
 40
1
 40
1
 40
1
 10
38.875751
 20
224.963119
 30
0.0
 10
38.228498
 20
224.589427
 30
0.0
 10
37.431048
 20
224.589427
 30
0.0
 10
36.783795
 20
224.963119
 30
0.0
  0
SPLINE
  5
108
100
AcDbEntity
  8
Layer_1
 62
7
100
AcDbSpline
 70
8
 71
3
 72
8
 73
4
 74
0
 40
0
 40
0
 40
0
 40
0
 40
1
 40
1
 40
1
 40
1
 10
36.783795
 20
224.963119
 30
0.0
 10
36.136541
 20
225.336811
 30
0.0
 10
35.737817
 20
226.027422
 30
0.0
 10
35.737817
 20
226.774806
 30
0.0
  0
SPLINE
  5
109
100
AcDbEntity
  8
Layer_1
 62
7
100
AcDbSpline
 70
8
 71
3
 72
8
 73
4
 74
0
 40
0
 40
0
 40
0
 40
0
 40
1
 40
1
 40
1
 40
1
 10
35.737817
 20
226.774806
 30
0.0
 10
35.737817
 20
227.522190
 30
0.0
 10
36.136541
 20
228.212802
 30
0.0
 10
36.783795
 20
228.586494
 30
0.0
  0
SPLINE
  5
10a
100
AcDbEntity
  8
Layer_1
 62
7
100
AcDbSpline
 70
8
 71
3
 72
8
 73
4
 74
0
 40
0
 40
0
 40
0
 40
0
 40
1
 40
1
 40
1
 40
1
 10
36.783795
 20
228.586494
 30
0.0
 10
37.431049
 20
228.960186
 30
0.0
 10
38.228498
 20
228.960186
 30
0.0
 10
38.875751
 20
228.586494
 30
0.0
  0
SPLINE
  5
10b
100
AcDbEntity
  8
Layer_1
 62
7
100
AcDbSpline
 70
8
 71
3
 72
8
 73
4
 74
0
 40
0
 40
0
 40
0
 40
0
 40
1
 40
1
 40
1
 40
1
 10
38.875751
 20
228.586494
 30
0.0
 10
39.523005
 20
228.212802
 30
0.0
 10
39.921730
 20
227.522190
 30
0.0
 10
39.921730
 20
226.774806
 30
0.0
  0
LWPOLYLINE
  5
10c
100
AcDbEntity
  8
Layer_1
 62
7
100
AcDbPolyline
 90
2
 70
0
 10
55.420644
 20
223.443880
 30
0.0
 10
55.420644
 20
223.443880
 30
0.0
  0
SPLINE
  5
10d
100
AcDbEntity
  8
Layer_1
 62
7
100
AcDbSpline
 70
8
 71
3
 72
8
 73
4
 74
0
 40
0
 40
0
 40
0
 40
0
 40
1
 40
1
 40
1
 40
1
 10
61.890658
 20
202.970000
 30
0.0
 10
61.890658
 20
202.222615
 30
0.0
 10
61.491933
 20
201.532004
 30
0.0
 10
60.844680
 20
201.158312
 30
0.0
  0
SPLINE
  5
10e
100
AcDbEntity
  8
Layer_1
 62
7
100
AcDbSpline
 70
8
 71
3
 72
8
 73
4
 74
0
 40
0
 40
0
 40
0
 40
0
 40
1
 40
1
 40
1
 40
1
 10
60.844680
 20
201.158312
 30
0.0
 10
60.197426
 20
200.784620
 30
0.0
 10
59.399977
 20
200.784620
 30
0.0
 10
58.752723
 20
201.158312
 30
0.0
  0
SPLINE
  5
10f
100
AcDbEntity
  8
Layer_1
 62
7
100
AcDbSpline
 70
8
 71
3
 72
8
 73
4
 74
0
 40
0
 40
0
 40
0
 40
0
 40
1
 40
1
 40
1
 40
1
 10
58.752723
 20
201.158312
 30
0.0
 10
58.105470
 20
201.532004
 30
0.0
 10
57.706745
 20
202.222615
 30
0.0
 10
57.706745
 20
202.970000
 30
0.0
  0
SPLINE
  5
110
100
AcDbEntity
  8
Layer_1
 62
7
100
AcDbSpline
 70
8
 71
3
 72
8
 73
4
 74
0
 40
0
 40
0
 40
0
 40
0
 40
1
 40
1
 40
1
 40
1
 10
57.706745
 20
202.970000
 30
0.0
 10
57.706745
 20
203.717384
 30
0.0
 10
58.105470
 20
204.407995
 30
0.0
 10
58.752723
 20
204.781687
 30
0.0
  0
SPLINE
  5
111
100
AcDbEntity
  8
Layer_1
 62
7
100
AcDbSpline
 70
8
 71
3
 72
8
 73
4
 74
0
 40
0
 40
0
 40
0
 40
0
 40
1
 40
1
 40
1
 40
1
 10
58.752723
 20
204.781687
 30
0.0
 10
59.399977
 20
205.155379
 30
0.0
 10
60.197426
 20
205.155379
 30
0.0
 10
60.844680
 20
204.781687
 30
0.0
  0
SPLINE
  5
112
100
AcDbEntity
  8
Layer_1
 62
7
100
AcDbSpline
 70
8
 71
3
 72
8
 73
4
 74
0
 40
0
 40
0
 40
0
 40
0
 40
1
 40
1
 40
1
 40
1
 10
60.844680
 20
204.781687
 30
0.0
 10
61.491934
 20
204.407995
 30
0.0
 10
61.890658
 20
203.717384
 30
0.0
 10
61.890658
 20
202.970000
 30
0.0
  0
LWPOLYLINE
  5
113
100
AcDbEntity
  8
Layer_1
 62
7
100
AcDbPolyline
 90
2
 70
0
 10
39.921730
 20
226.774806
 30
0.0
 10
39.921730
 20
226.774806
 30
0.0
  0
SPLINE
  5
114
100
AcDbEntity
  8
Layer_1
 62
7
100
AcDbSpline
 70
8
 71
3
 72
8
 73
4
 74
0
 40
0
 40
0
 40
0
 40
0
 40
1
 40
1
 40
1
 40
1
 10
61.890658
 20
226.774806
 30
0.0
 10
61.890658
 20
226.027422
 30
0.0
 10
61.491933
 20
225.336811
 30
0.0
 10
60.844680
 20
224.963119
 30
0.0
  0
SPLINE
  5
115
100
AcDbEntity
  8
Layer_1
 62
7
100
AcDbSpline
 70
8
 71
3
 72
8
 73
4
 74
0
 40
0
 40
0
 40
0
 40
0
 40
1
 40
1
 40
1
 40
1
 10
60.844680
 20
224.963119
 30
0.0
 10
60.197426
 20
224.589427
 30
0.0
 10
59.399977
 20
224.589427
 30
0.0
 10
58.752723
 20
224.963119
 30
0.0
  0
SPLINE
  5
116
100
AcDbEntity
  8
Layer_1
 62
7
100
AcDbSpline
 70
8
 71
3
 72
8
 73
4
 74
0
 40
0
 40
0
 40
0
 40
0
 40
1
 40
1
 40
1
 40
1
 10
58.752723
 20
224.963119
 30
0.0
 10
58.105470
 20
225.336811
 30
0.0
 10
57.706745
 20
226.027422
 30
0.0
 10
57.706745
 20
226.774806
 30
0.0
  0
SPLINE
  5
117
100
AcDbEntity
  8
Layer_1
 62
7
100
AcDbSpline
 70
8
 71
3
 72
8
 73
4
 74
0
 40
0
 40
0
 40
0
 40
0
 40
1
 40
1
 40
1
 40
1
 10
57.706745
 20
226.774806
 30
0.0
 10
57.706745
 20
227.522190
 30
0.0
 10
58.105470
 20
228.212802
 30
0.0
 10
58.752723
 20
228.586494
 30
0.0
  0
SPLINE
  5
118
100
AcDbEntity
  8
Layer_1
 62
7
100
AcDbSpline
 70
8
 71
3
 72
8
 73
4
 74
0
 40
0
 40
0
 40
0
 40
0
 40
1
 40
1
 40
1
 40
1
 10
58.752723
 20
228.586494
 30
0.0
 10
59.399977
 20
228.960186
 30
0.0
 10
60.197426
 20
228.960186
 30
0.0
 10
60.844680
 20
228.586494
 30
0.0
  0
SPLINE
  5
119
100
AcDbEntity
  8
Layer_1
 62
7
100
AcDbSpline
 70
8
 71
3
 72
8
 73
4
 74
0
 40
0
 40
0
 40
0
 40
0
 40
1
 40
1
 40
1
 40
1
 10
60.844680
 20
228.586494
 30
0.0
 10
61.491934
 20
228.212802
 30
0.0
 10
61.890658
 20
227.522190
 30
0.0
 10
61.890658
 20
226.774806
 30
0.0
  0
LWPOLYLINE
  5
11a
100
AcDbEntity
  8
Layer_1
 62
7
100
AcDbPolyline
 90
2
 70
0
 10
61.890658
 20
202.970000
 30
0.0
 10
61.890658
 20
202.970000
 30
0.0
  0
SPLINE
  5
11b
100
AcDbEntity
  8
Layer_1
 62
7
100
AcDbSpline
 70
8
 71
3
 72
8
 73
4
 74
0
 40
0
 40
0
 40
0
 40
0
 40
1
 40
1
 40
1
 40
1
 10
39.779185
 20
202.970000
 30
0.0
 10
39.779185
 20
202.222615
 30
0.0
 10
39.380460
 20
201.532004
 30
0.0
 10
38.733207
 20
201.158312
 30
0.0
  0
SPLINE
  5
11c
100
AcDbEntity
  8
Layer_1
 62
7
100
AcDbSpline
 70
8
 71
3
 72
8
 73
4
 74
0
 40
0
 40
0
 40
0
 40
0
 40
1
 40
1
 40
1
 40
1
 10
38.733207
 20
201.158312
 30
0.0
 10
38.085953
 20
200.784620
 30
0.0
 10
37.288504
 20
200.784620
 30
0.0
 10
36.641250
 20
201.158312
 30
0.0
  0
SPLINE
  5
11d
100
AcDbEntity
  8
Layer_1
 62
7
100
AcDbSpline
 70
8
 71
3
 72
8
 73
4
 74
0
 40
0
 40
0
 40
0
 40
0
 40
1
 40
1
 40
1
 40
1
 10
36.641250
 20
201.158312
 30
0.0
 10
35.993996
 20
201.532004
 30
0.0
 10
35.595272
 20
202.222615
 30
0.0
 10
35.595272
 20
202.970000
 30
0.0
  0
SPLINE
  5
11e
100
AcDbEntity
  8
Layer_1
 62
7
100
AcDbSpline
 70
8
 71
3
 72
8
 73
4
 74
0
 40
0
 40
0
 40
0
 40
0
 40
1
 40
1
 40
1
 40
1
 10
35.595272
 20
202.970000
 30
0.0
 10
35.595272
 20
203.717384
 30
0.0
 10
35.993997
 20
204.407995
 30
0.0
 10
36.641250
 20
204.781687
 30
0.0
  0
SPLINE
  5
11f
100
AcDbEntity
  8
Layer_1
 62
7
100
AcDbSpline
 70
8
 71
3
 72
8
 73
4
 74
0
 40
0
 40
0
 40
0
 40
0
 40
1
 40
1
 40
1
 40
1
 10
36.641250
 20
204.781687
 30
0.0
 10
37.288504
 20
205.155379
 30
0.0
 10
38.085953
 20
205.155379
 30
0.0
 10
38.733207
 20
204.781687
 30
0.0
  0
SPLINE
  5
120
100
AcDbEntity
  8
Layer_1
 62
7
100
AcDbSpline
 70
8
 71
3
 72
8
 73
4
 74
0
 40
0
 40
0
 40
0
 40
0
 40
1
 40
1
 40
1
 40
1
 10
38.733207
 20
204.781687
 30
0.0
 10
39.380460
 20
204.407995
 30
0.0
 10
39.779185
 20
203.717384
 30
0.0
 10
39.779185
 20
202.970000
 30
0.0
  0
LWPOLYLINE
  5
121
100
AcDbEntity
  8
Layer_1
 62
7
100
AcDbPolyline
 90
2
 70
0
 10
61.890658
 20
226.774806
 30
0.0
 10
61.890658
 20
226.774806
 30
0.0
  0
LWPOLYLINE
  5
122
100
AcDbEntity
  8
Layer_1
 62
7
100
AcDbPolyline
 90
2
 70
0
 10
39.779185
 20
202.970000
 30
0.0
 10
39.779185
 20
202.970000
 30
0.0
  0
SPLINE
  5
123
100
AcDbEntity
  8
Layer_1
 62
7
100
AcDbSpline
 70
8
 71
3
 72
8
 73
4
 74
0
 40
0
 40
0
 40
0
 40
0
 40
1
 40
1
 40
1
 40
1
 10
72.945760
 20
235.518730
 30
0.0
 10
72.945760
 20
228.888701
 30
0.0
 10
72.945760
 20
225.857908
 30
0.0
 10
72.945760
 20
219.227878
 30
0.0
  0
LWPOLYLINE
  5
124
100
AcDbEntity
  8
Layer_1
 62
7
100
AcDbPolyline
 90
9
 70
0
 10
66.166382
 20
235.295391
 30
0.0
 10
26.436893
 20
235.295391
 30
0.0
 10
26.436893
 20
194.449416
 30
0.0
 10
66.166382
 20
194.449416
 30
0.0
 10
66.166382
 20
211.231797
 30
0.0
 10
53.954406
 20
211.231797
 30
0.0
 10
53.954406
 20
219.225711
 30
0.0
 10
66.166382
 20
219.225711
 30
0.0
 10
66.166382
 20
235.295391
 30
0.0
  0
LWPOLYLINE
  5
125
100
AcDbEntity
  8
Layer_1
 62
7
100
AcDbPolyline
 90
5
 70
0
 10
72.945760
 20
219.227878
 30
0.0
 10
75.218008
 20
219.227878
 30
0.0
 10
75.218008
 20
211.253286
 30
0.0
 10
72.945760
 20
211.253286
 30
0.0
 10
72.945760
 20
194.609671
 30
0.0
  0
LWPOLYLINE
  5
126
100
AcDbEntity
  8
Layer_1
 62
7
100
AcDbPolyline
 90
5
 70
0
 10
80.830759
 20
235.518730
 30
0.0
 10
80.830759
 20
232.161575
 30
0.0
 10
77.733714
 20
232.161575
 30
0.0
 10
77.733714
 20
235.518730
 30
0.0
 10
72.945760
 20
235.518730
 30
0.0
  0
LWPOLYLINE
  5
127
100
AcDbEntity
  8
Layer_1
 62
7
100
AcDbPolyline
 90
12
 70
0
 10
80.830759
 20
235.518730
 30
0.0
 10
85.704045
 20
235.518730
 30
0.0
 10
85.704045
 20
216.829379
 30
0.0
 10
82.055854
 20
216.829379
 30
0.0
 10
82.055854
 20
212.553879
 30
0.0
 10
85.704045
 20
212.553879
 30
0.0
 10
85.704045
 20
194.609671
 30
0.0
 10
80.830759
 20
194.609671
 30
0.0
 10
80.830759
 20
197.966828
 30
0.0
 10
77.733714
 20
197.966828
 30
0.0
 10
77.733714
 20
194.609671
 30
0.0
 10
72.945760
 20
194.609671
 30
0.0
  0
LWPOLYLINE
  5
128
100
AcDbEntity
  8
Layer_1
 62
7
100
AcDbPolyline
 90
2
 70
0
 10
89.582885
 20
186.762233
 30
0.0
 10
89.582885
 20
151.917729
 30
0.0
  0
LWPOLYLINE
  5
129
100
AcDbEntity
  8
Layer_1
 62
7
100
AcDbPolyline
 90
5
 70
0
 10
97.467888
 20
186.762230
 30
0.0
 10
97.467888
 20
189.850958
 30
0.0
 10
94.370841
 20
189.850958
 30
0.0
 10
94.370841
 20
186.762230
 30
0.0
 10
89.582885
 20
186.762230
 30
0.0
  0
LWPOLYLINE
  5
12a
100
AcDbEntity
  8
Layer_1
 62
7
100
AcDbPolyline
 90
12
 70
0
 10
97.467888
 20
186.762230
 30
0.0
 10
102.341172
 20
186.762230
 30
0.0
 10
102.341172
 20
171.311588
 30
0.0
 10
99.123359
 20
171.311588
 30
0.0
 10
99.123359
 20
167.036088
 30
0.0
 10
102.341172
 20
167.036088
 30
0.0
 10
102.341172
 20
151.917729
 30
0.0
 10
97.467888
 20
151.946448
 30
0.0
 10
97.467888
 20
148.941684
 30
0.0
 10
94.370841
 20
148.941684
 30
0.0
 10
94.370841
 20
151.946448
 30
0.0
 10
89.582885
 20
151.917729
 30
0.0
  0
LWPOLYLINE
  5
12b
100
AcDbEntity
  8
Layer_1
 62
7
100
AcDbPolyline
 90
5
 70
0
 10
97.482448
 20
228.496240
 30
0.0
 10
97.482448
 20
216.651561
 30
0.0
 10
94.619659
 20
216.651561
 30
0.0
 10
94.619659
 20
228.496240
 30
0.0
 10
97.482448
 20
228.496240
 30
0.0
  0
LWPOLYLINE
  5
12c
100
AcDbEntity
  8
Layer_1
 62
7
100
AcDbPolyline
 90
5
 70
0
 10
97.397432
 20
180.990484
 30
0.0
 10
97.397432
 20
177.178598
 30
0.0
 10
94.526626
 20
177.178598
 30
0.0
 10
94.526626
 20
180.990484
 30
0.0
 10
97.397432
 20
180.990484
 30
0.0
  0
LWPOLYLINE
  5
12d
100
AcDbEntity
  8
Layer_1
 62
7
100
AcDbPolyline
 90
5
 70
0
 10
33.314488
 20
217.983688
 30
0.0
 10
33.314488
 20
211.479075
 30
0.0
 10
30.364308
 20
211.479075
 30
0.0
 10
30.364308
 20
217.983688
 30
0.0
 10
33.314488
 20
217.983688
 30
0.0
  0
LWPOLYLINE
  5
12e
100
AcDbEntity
  8
Layer_1
 62
7
100
AcDbPolyline
 90
5
 70
0
 10
81.111880
 20
227.825880
 30
0.0
 10
81.111880
 20
221.380638
 30
0.0
 10
78.220638
 20
221.380638
 30
0.0
 10
78.220638
 20
227.825880
 30
0.0
 10
81.111880
 20
227.825880
 30
0.0
  0
LWPOLYLINE
  5
12f
100
AcDbEntity
  8
Layer_1
 62
7
100
AcDbPolyline
 90
21
 70
0
 10
62.785800
 20
184.825162
 30
0.0
 10
47.835512
 20
184.825162
 30
0.0
 10
47.835512
 20
187.208946
 30
0.0
 10
43.858897
 20
187.208946
 30
0.0
 10
43.858897
 20
184.825162
 30
0.0
 10
28.130226
 20
184.825162
 30
0.0
 10
28.130226
 20
168.896587
 30
0.0
 10
25.077578
 20
168.896587
 30
0.0
 10
25.077578
 20
164.827476
 30
0.0
 10
28.130226
 20
164.827476
 30
0.0
 10
28.130226
 20
150.273415
 30
0.0
 10
43.858897
 20
150.273415
 30
0.0
 10
43.858897
 20
147.202936
 30
0.0
 10
47.835512
 20
147.202936
 30
0.0
 10
47.835512
 20
150.273415
 30
0.0
 10
62.785800
 20
150.273415
 30
0.0
 10
62.785800
 20
164.827476
 30
0.0
 10
65.536101
 20
164.827476
 30
0.0
 10
65.536101
 20
168.896587
 30
0.0
 10
62.785800
 20
168.896587
 30
0.0
 10
62.785800
 20
184.825162
 30
0.0
  0
LWPOLYLINE
  5
130
100
AcDbEntity
  8
Layer_1
 62
7
100
AcDbPolyline
 90
2
 70
0
 10
89.671909
 20
234.665355
 30
0.0
 10
89.671909
 20
193.756295
 30
0.0
  0
LWPOLYLINE
  5
131
100
AcDbEntity
  8
Layer_1
 62
7
100
AcDbPolyline
 90
5
 70
0
 10
97.556907
 20
234.665355
 30
0.0
 10
97.556907
 20
231.308200
 30
0.0
 10
94.459862
 20
231.308200
 30
0.0
 10
94.459862
 20
234.665355
 30
0.0
 10
89.671909
 20
234.665355
 30
0.0
  0
LWPOLYLINE
  5
132
100
AcDbEntity
  8
Layer_1
 62
7
100
AcDbPolyline
 90
12
 70
0
 10
97.556907
 20
234.665355
 30
0.0
 10
102.430193
 20
234.665355
 30
0.0
 10
102.430193
 20
215.976004
 30
0.0
 10
98.782003
 20
215.976004
 30
0.0
 10
98.782003
 20
211.700504
 30
0.0
 10
102.430193
 20
211.700504
 30
0.0
 10
102.430193
 20
193.756295
 30
0.0
 10
97.556907
 20
193.756295
 30
0.0
 10
97.556907
 20
197.113453
 30
0.0
 10
94.459862
 20
197.113453
 30
0.0
 10
94.459862
 20
193.756295
 30
0.0
 10
89.671909
 20
193.756295
 30
0.0
  0
LWPOLYLINE
  5
133
100
AcDbEntity
  8
Layer_1
 62
7
100
AcDbPolyline
 90
2
 70
0
 10
71.832684
 20
185.908858
 30
0.0
 10
71.832684
 20
151.064351
 30
0.0
  0
LWPOLYLINE
  5
134
100
AcDbEntity
  8
Layer_1
 62
7
100
AcDbPolyline
 90
5
 70
0
 10
79.717688
 20
185.908853
 30
0.0
 10
79.717688
 20
188.997583
 30
0.0
 10
76.620641
 20
188.997583
 30
0.0
 10
76.620641
 20
185.908853
 30
0.0
 10
71.832684
 20
185.908853
 30
0.0
  0
SPLINE
  5
135
100
AcDbEntity
  8
Layer_1
 62
7
100
AcDbSpline
 70
8
 71
3
 72
8
 73
4
 74
0
 40
0
 40
0
 40
0
 40
0
 40
1
 40
1
 40
1
 40
1
 10
137.829533
 20
223.443880
 30
0.0
 10
137.829533
 20
222.735069
 30
0.0
 10
137.451386
 20
222.080100
 30
0.0
 10
136.837537
 20
221.725694
 30
0.0
  0
SPLINE
  5
136
100
AcDbEntity
  8
Layer_1
 62
7
100
AcDbSpline
 70
8
 71
3
 72
8
 73
4
 74
0
 40
0
 40
0
 40
0
 40
0
 40
1
 40
1
 40
1
 40
1
 10
136.837537
 20
221.725694
 30
0.0
 10
136.223689
 20
221.371288
 30
0.0
 10
135.467396
 20
221.371288
 30
0.0
 10
134.853547
 20
221.725694
 30
0.0
  0
SPLINE
  5
137
100
AcDbEntity
  8
Layer_1
 62
7
100
AcDbSpline
 70
8
 71
3
 72
8
 73
4
 74
0
 40
0
 40
0
 40
0
 40
0
 40
1
 40
1
 40
1
 40
1
 10
134.853547
 20
221.725694
 30
0.0
 10
134.239698
 20
222.080100
 30
0.0
 10
133.861552
 20
222.735069
 30
0.0
 10
133.861552
 20
223.443880
 30
0.0
  0
SPLINE
  5
138
100
AcDbEntity
  8
Layer_1
 62
7
100
AcDbSpline
 70
8
 71
3
 72
8
 73
4
 74
0
 40
0
 40
0
 40
0
 40
0
 40
1
 40
1
 40
1
 40
1
 10
133.861552
 20
223.443880
 30
0.0
 10
133.861552
 20
224.152692
 30
0.0
 10
134.239698
 20
224.807661
 30
0.0
 10
134.853547
 20
225.162066
 30
0.0
  0
SPLINE
  5
139
100
AcDbEntity
  8
Layer_1
 62
7
100
AcDbSpline
 70
8
 71
3
 72
8
 73
4
 74
0
 40
0
 40
0
 40
0
 40
0
 40
1
 40
1
 40
1
 40
1
 10
134.853547
 20
225.162066
 30
0.0
 10
135.467396
 20
225.516472
 30
0.0
 10
136.223689
 20
225.516472
 30
0.0
 10
136.837537
 20
225.162066
 30
0.0
  0
SPLINE
  5
13a
100
AcDbEntity
  8
Layer_1
 62
7
100
AcDbSpline
 70
8
 71
3
 72
8
 73
4
 74
0
 40
0
 40
0
 40
0
 40
0
 40
1
 40
1
 40
1
 40
1
 10
136.837537
 20
225.162066
 30
0.0
 10
137.451386
 20
224.807661
 30
0.0
 10
137.829533
 20
224.152692
 30
0.0
 10
137.829533
 20
223.443880
 30
0.0
  0
LWPOLYLINE
  5
13b
100
AcDbEntity
  8
Layer_1
 62
7
100
AcDbPolyline
 90
12
 70
0
 10
79.717688
 20
185.908853
 30
0.0
 10
84.590975
 20
185.908853
 30
0.0
 10
84.590975
 20
170.458208
 30
0.0
 10
81.373162
 20
170.458208
 30
0.0
 10
81.373162
 20
166.182710
 30
0.0
 10
84.590975
 20
166.182710
 30
0.0
 10
84.590975
 20
151.064351
 30
0.0
 10
79.717688
 20
151.093073
 30
0.0
 10
79.717688
 20
148.088309
 30
0.0
 10
76.620641
 20
148.088309
 30
0.0
 10
76.620641
 20
151.093073
 30
0.0
 10
71.832684
 20
151.064351
 30
0.0
  0
SPLINE
  5
13c
100
AcDbEntity
  8
Layer_1
 62
7
100
AcDbSpline
 70
8
 71
3
 72
8
 73
4
 74
0
 40
0
 40
0
 40
0
 40
0
 40
1
 40
1
 40
1
 40
1
 10
122.330619
 20
226.774806
 30
0.0
 10
122.330619
 20
226.027422
 30
0.0
 10
121.931894
 20
225.336811
 30
0.0
 10
121.284640
 20
224.963119
 30
0.0
  0
SPLINE
  5
13d
100
AcDbEntity
  8
Layer_1
 62
7
100
AcDbSpline
 70
8
 71
3
 72
8
 73
4
 74
0
 40
0
 40
0
 40
0
 40
0
 40
1
 40
1
 40
1
 40
1
 10
121.284640
 20
224.963119
 30
0.0
 10
120.637387
 20
224.589427
 30
0.0
 10
119.839937
 20
224.589427
 30
0.0
 10
119.192684
 20
224.963119
 30
0.0
  0
SPLINE
  5
13e
100
AcDbEntity
  8
Layer_1
 62
7
100
AcDbSpline
 70
8
 71
3
 72
8
 73
4
 74
0
 40
0
 40
0
 40
0
 40
0
 40
1
 40
1
 40
1
 40
1
 10
119.192684
 20
224.963119
 30
0.0
 10
118.545430
 20
225.336811
 30
0.0
 10
118.146705
 20
226.027422
 30
0.0
 10
118.146706
 20
226.774806
 30
0.0
  0
SPLINE
  5
13f
100
AcDbEntity
  8
Layer_1
 62
7
100
AcDbSpline
 70
8
 71
3
 72
8
 73
4
 74
0
 40
0
 40
0
 40
0
 40
0
 40
1
 40
1
 40
1
 40
1
 10
118.146706
 20
226.774806
 30
0.0
 10
118.146706
 20
227.522190
 30
0.0
 10
118.545430
 20
228.212802
 30
0.0
 10
119.192684
 20
228.586494
 30
0.0
  0
SPLINE
  5
140
100
AcDbEntity
  8
Layer_1
 62
7
100
AcDbSpline
 70
8
 71
3
 72
8
 73
4
 74
0
 40
0
 40
0
 40
0
 40
0
 40
1
 40
1
 40
1
 40
1
 10
119.192684
 20
228.586494
 30
0.0
 10
119.839937
 20
228.960186
 30
0.0
 10
120.637387
 20
228.960186
 30
0.0
 10
121.284640
 20
228.586494
 30
0.0
  0
SPLINE
  5
141
100
AcDbEntity
  8
Layer_1
 62
7
100
AcDbSpline
 70
8
 71
3
 72
8
 73
4
 74
0
 40
0
 40
0
 40
0
 40
0
 40
1
 40
1
 40
1
 40
1
 10
121.284640
 20
228.586494
 30
0.0
 10
121.931894
 20
228.212802
 30
0.0
 10
122.330619
 20
227.522190
 30
0.0
 10
122.330619
 20
226.774806
 30
0.0
  0
LWPOLYLINE
  5
142
100
AcDbEntity
  8
Layer_1
 62
7
100
AcDbPolyline
 90
2
 70
0
 10
137.829533
 20
223.443880
 30
0.0
 10
137.829533
 20
223.443880
 30
0.0
  0
SPLINE
  5
143
100
AcDbEntity
  8
Layer_1
 62
7
100
AcDbSpline
 70
8
 71
3
 72
8
 73
4
 74
0
 40
0
 40
0
 40
0
 40
0
 40
1
 40
1
 40
1
 40
1
 10
144.299547
 20
202.970000
 30
0.0
 10
144.299547
 20
202.222615
 30
0.0
 10
143.900822
 20
201.532004
 30
0.0
 10
143.253569
 20
201.158312
 30
0.0
  0
SPLINE
  5
144
100
AcDbEntity
  8
Layer_1
 62
7
100
AcDbSpline
 70
8
 71
3
 72
8
 73
4
 74
0
 40
0
 40
0
 40
0
 40
0
 40
1
 40
1
 40
1
 40
1
 10
143.253569
 20
201.158312
 30
0.0
 10
142.606315
 20
200.784620
 30
0.0
 10
141.808866
 20
200.784620
 30
0.0
 10
141.161612
 20
201.158312
 30
0.0
  0
SPLINE
  5
145
100
AcDbEntity
  8
Layer_1
 62
7
100
AcDbSpline
 70
8
 71
3
 72
8
 73
4
 74
0
 40
0
 40
0
 40
0
 40
0
 40
1
 40
1
 40
1
 40
1
 10
141.161612
 20
201.158312
 30
0.0
 10
140.514359
 20
201.532004
 30
0.0
 10
140.115634
 20
202.222615
 30
0.0
 10
140.115634
 20
202.970000
 30
0.0
  0
SPLINE
  5
146
100
AcDbEntity
  8
Layer_1
 62
7
100
AcDbSpline
 70
8
 71
3
 72
8
 73
4
 74
0
 40
0
 40
0
 40
0
 40
0
 40
1
 40
1
 40
1
 40
1
 10
140.115634
 20
202.970000
 30
0.0
 10
140.115634
 20
203.717384
 30
0.0
 10
140.514359
 20
204.407995
 30
0.0
 10
141.161612
 20
204.781687
 30
0.0
  0
SPLINE
  5
147
100
AcDbEntity
  8
Layer_1
 62
7
100
AcDbSpline
 70
8
 71
3
 72
8
 73
4
 74
0
 40
0
 40
0
 40
0
 40
0
 40
1
 40
1
 40
1
 40
1
 10
141.161612
 20
204.781687
 30
0.0
 10
141.808866
 20
205.155379
 30
0.0
 10
142.606315
 20
205.155379
 30
0.0
 10
143.253569
 20
204.781687
 30
0.0
  0
SPLINE
  5
148
100
AcDbEntity
  8
Layer_1
 62
7
100
AcDbSpline
 70
8
 71
3
 72
8
 73
4
 74
0
 40
0
 40
0
 40
0
 40
0
 40
1
 40
1
 40
1
 40
1
 10
143.253569
 20
204.781687
 30
0.0
 10
143.900822
 20
204.407995
 30
0.0
 10
144.299547
 20
203.717384
 30
0.0
 10
144.299547
 20
202.970000
 30
0.0
  0
LWPOLYLINE
  5
149
100
AcDbEntity
  8
Layer_1
 62
7
100
AcDbPolyline
 90
2
 70
0
 10
122.330619
 20
226.774806
 30
0.0
 10
122.330619
 20
226.774806
 30
0.0
  0
SPLINE
  5
14a
100
AcDbEntity
  8
Layer_1
 62
7
100
AcDbSpline
 70
8
 71
3
 72
8
 73
4
 74
0
 40
0
 40
0
 40
0
 40
0
 40
1
 40
1
 40
1
 40
1
 10
144.299547
 20
226.774806
 30
0.0
 10
144.299547
 20
226.027422
 30
0.0
 10
143.900822
 20
225.336811
 30
0.0
 10
143.253569
 20
224.963119
 30
0.0
  0
SPLINE
  5
14b
100
AcDbEntity
  8
Layer_1
 62
7
100
AcDbSpline
 70
8
 71
3
 72
8
 73
4
 74
0
 40
0
 40
0
 40
0
 40
0
 40
1
 40
1
 40
1
 40
1
 10
143.253569
 20
224.963119
 30
0.0
 10
142.606315
 20
224.589427
 30
0.0
 10
141.808866
 20
224.589427
 30
0.0
 10
141.161612
 20
224.963119
 30
0.0
  0
SPLINE
  5
14c
100
AcDbEntity
  8
Layer_1
 62
7
100
AcDbSpline
 70
8
 71
3
 72
8
 73
4
 74
0
 40
0
 40
0
 40
0
 40
0
 40
1
 40
1
 40
1
 40
1
 10
141.161612
 20
224.963119
 30
0.0
 10
140.514359
 20
225.336811
 30
0.0
 10
140.115634
 20
226.027422
 30
0.0
 10
140.115634
 20
226.774806
 30
0.0
  0
SPLINE
  5
14d
100
AcDbEntity
  8
Layer_1
 62
7
100
AcDbSpline
 70
8
 71
3
 72
8
 73
4
 74
0
 40
0
 40
0
 40
0
 40
0
 40
1
 40
1
 40
1
 40
1
 10
140.115634
 20
226.774806
 30
0.0
 10
140.115634
 20
227.522190
 30
0.0
 10
140.514359
 20
228.212802
 30
0.0
 10
141.161612
 20
228.586494
 30
0.0
  0
SPLINE
  5
14e
100
AcDbEntity
  8
Layer_1
 62
7
100
AcDbSpline
 70
8
 71
3
 72
8
 73
4
 74
0
 40
0
 40
0
 40
0
 40
0
 40
1
 40
1
 40
1
 40
1
 10
141.161612
 20
228.586494
 30
0.0
 10
141.808866
 20
228.960186
 30
0.0
 10
142.606315
 20
228.960186
 30
0.0
 10
143.253569
 20
228.586494
 30
0.0
  0
SPLINE
  5
14f
100
AcDbEntity
  8
Layer_1
 62
7
100
AcDbSpline
 70
8
 71
3
 72
8
 73
4
 74
0
 40
0
 40
0
 40
0
 40
0
 40
1
 40
1
 40
1
 40
1
 10
143.253569
 20
228.586494
 30
0.0
 10
143.900822
 20
228.212802
 30
0.0
 10
144.299547
 20
227.522190
 30
0.0
 10
144.299547
 20
226.774806
 30
0.0
  0
LWPOLYLINE
  5
150
100
AcDbEntity
  8
Layer_1
 62
7
100
AcDbPolyline
 90
2
 70
0
 10
144.299547
 20
202.970000
 30
0.0
 10
144.299547
 20
202.970000
 30
0.0
  0
SPLINE
  5
151
100
AcDbEntity
  8
Layer_1
 62
7
100
AcDbSpline
 70
8
 71
3
 72
8
 73
4
 74
0
 40
0
 40
0
 40
0
 40
0
 40
1
 40
1
 40
1
 40
1
 10
122.188074
 20
202.970000
 30
0.0
 10
122.188074
 20
202.222615
 30
0.0
 10
121.789349
 20
201.532004
 30
0.0
 10
121.142095
 20
201.158312
 30
0.0
  0
SPLINE
  5
152
100
AcDbEntity
  8
Layer_1
 62
7
100
AcDbSpline
 70
8
 71
3
 72
8
 73
4
 74
0
 40
0
 40
0
 40
0
 40
0
 40
1
 40
1
 40
1
 40
1
 10
121.142095
 20
201.158312
 30
0.0
 10
120.494842
 20
200.784620
 30
0.0
 10
119.697393
 20
200.784620
 30
0.0
 10
119.050139
 20
201.158312
 30
0.0
  0
SPLINE
  5
153
100
AcDbEntity
  8
Layer_1
 62
7
100
AcDbSpline
 70
8
 71
3
 72
8
 73
4
 74
0
 40
0
 40
0
 40
0
 40
0
 40
1
 40
1
 40
1
 40
1
 10
119.050139
 20
201.158312
 30
0.0
 10
118.402885
 20
201.532004
 30
0.0
 10
118.004161
 20
202.222615
 30
0.0
 10
118.004161
 20
202.970000
 30
0.0
  0
SPLINE
  5
154
100
AcDbEntity
  8
Layer_1
 62
7
100
AcDbSpline
 70
8
 71
3
 72
8
 73
4
 74
0
 40
0
 40
0
 40
0
 40
0
 40
1
 40
1
 40
1
 40
1
 10
118.004161
 20
202.970000
 30
0.0
 10
118.004161
 20
203.717384
 30
0.0
 10
118.402885
 20
204.407995
 30
0.0
 10
119.050139
 20
204.781687
 30
0.0
  0
SPLINE
  5
155
100
AcDbEntity
  8
Layer_1
 62
7
100
AcDbSpline
 70
8
 71
3
 72
8
 73
4
 74
0
 40
0
 40
0
 40
0
 40
0
 40
1
 40
1
 40
1
 40
1
 10
119.050139
 20
204.781687
 30
0.0
 10
119.697393
 20
205.155379
 30
0.0
 10
120.494842
 20
205.155379
 30
0.0
 10
121.142096
 20
204.781687
 30
0.0
  0
SPLINE
  5
156
100
AcDbEntity
  8
Layer_1
 62
7
100
AcDbSpline
 70
8
 71
3
 72
8
 73
4
 74
0
 40
0
 40
0
 40
0
 40
0
 40
1
 40
1
 40
1
 40
1
 10
121.142096
 20
204.781687
 30
0.0
 10
121.789349
 20
204.407995
 30
0.0
 10
122.188074
 20
203.717384
 30
0.0
 10
122.188074
 20
202.970000
 30
0.0
  0
LWPOLYLINE
  5
157
100
AcDbEntity
  8
Layer_1
 62
7
100
AcDbPolyline
 90
2
 70
0
 10
144.299547
 20
226.774806
 30
0.0
 10
144.299547
 20
226.774806
 30
0.0
  0
LWPOLYLINE
  5
158
100
AcDbEntity
  8
Layer_1
 62
7
100
AcDbPolyline
 90
2
 70
0
 10
122.188074
 20
202.970000
 30
0.0
 10
122.188074
 20
202.970000
 30
0.0
  0
SPLINE
  5
159
100
AcDbEntity
  8
Layer_1
 62
7
100
AcDbSpline
 70
8
 71
3
 72
8
 73
4
 74
0
 40
0
 40
0
 40
0
 40
0
 40
1
 40
1
 40
1
 40
1
 10
155.354649
 20
235.518730
 30
0.0
 10
155.354649
 20
228.888701
 30
0.0
 10
155.354649
 20
225.857908
 30
0.0
 10
155.354649
 20
219.227878
 30
0.0
  0
LWPOLYLINE
  5
15a
100
AcDbEntity
  8
Layer_1
 62
7
100
AcDbPolyline
 90
9
 70
0
 10
148.575271
 20
235.295391
 30
0.0
 10
108.845782
 20
235.295391
 30
0.0
 10
108.845782
 20
194.449416
 30
0.0
 10
148.575271
 20
194.449416
 30
0.0
 10
148.575271
 20
211.231797
 30
0.0
 10
136.363295
 20
211.231797
 30
0.0
 10
136.363295
 20
219.225711
 30
0.0
 10
148.575271
 20
219.225711
 30
0.0
 10
148.575271
 20
235.295391
 30
0.0
  0
LWPOLYLINE
  5
15b
100
AcDbEntity
  8
Layer_1
 62
7
100
AcDbPolyline
 90
5
 70
0
 10
155.354649
 20
219.227878
 30
0.0
 10
157.626897
 20
219.227878
 30
0.0
 10
157.626897
 20
211.253286
 30
0.0
 10
155.354649
 20
211.253286
 30
0.0
 10
155.354649
 20
194.609671
 30
0.0
  0
LWPOLYLINE
  5
15c
100
AcDbEntity
  8
Layer_1
 62
7
100
AcDbPolyline
 90
5
 70
0
 10
163.239648
 20
235.518730
 30
0.0
 10
163.239648
 20
232.161575
 30
0.0
 10
160.142603
 20
232.161575
 30
0.0
 10
160.142603
 20
235.518730
 30
0.0
 10
155.354649
 20
235.518730
 30
0.0
  0
LWPOLYLINE
  5
15d
100
AcDbEntity
  8
Layer_1
 62
7
100
AcDbPolyline
 90
12
 70
0
 10
163.239648
 20
235.518730
 30
0.0
 10
168.112934
 20
235.518730
 30
0.0
 10
168.112934
 20
216.829379
 30
0.0
 10
164.464743
 20
216.829379
 30
0.0
 10
164.464743
 20
212.553879
 30
0.0
 10
168.112934
 20
212.553879
 30
0.0
 10
168.112934
 20
194.609671
 30
0.0
 10
163.239648
 20
194.609671
 30
0.0
 10
163.239648
 20
197.966828
 30
0.0
 10
160.142603
 20
197.966828
 30
0.0
 10
160.142603
 20
194.609671
 30
0.0
 10
155.354649
 20
194.609671
 30
0.0
  0
LWPOLYLINE
  5
15e
100
AcDbEntity
  8
Layer_1
 62
7
100
AcDbPolyline
 90
2
 70
0
 10
171.991774
 20
186.762233
 30
0.0
 10
171.991774
 20
151.917729
 30
0.0
  0
LWPOLYLINE
  5
15f
100
AcDbEntity
  8
Layer_1
 62
7
100
AcDbPolyline
 90
5
 70
0
 10
179.876777
 20
186.762230
 30
0.0
 10
179.876777
 20
189.850958
 30
0.0
 10
176.779730
 20
189.850958
 30
0.0
 10
176.779730
 20
186.762230
 30
0.0
 10
171.991774
 20
186.762230
 30
0.0
  0
LWPOLYLINE
  5
160
100
AcDbEntity
  8
Layer_1
 62
7
100
AcDbPolyline
 90
12
 70
0
 10
179.876777
 20
186.762230
 30
0.0
 10
184.750061
 20
186.762230
 30
0.0
 10
184.750061
 20
171.311588
 30
0.0
 10
181.532248
 20
171.311588
 30
0.0
 10
181.532248
 20
167.036088
 30
0.0
 10
184.750061
 20
167.036088
 30
0.0
 10
184.750061
 20
151.917729
 30
0.0
 10
179.876777
 20
151.946448
 30
0.0
 10
179.876777
 20
148.941684
 30
0.0
 10
176.779730
 20
148.941684
 30
0.0
 10
176.779730
 20
151.946448
 30
0.0
 10
171.991774
 20
151.917729
 30
0.0
  0
LWPOLYLINE
  5
161
100
AcDbEntity
  8
Layer_1
 62
7
100
AcDbPolyline
 90
5
 70
0
 10
163.169196
 20
227.755423
 30
0.0
 10
163.169196
 20
223.943537
 30
0.0
 10
160.298391
 20
223.943537
 30
0.0
 10
160.298391
 20
227.755423
 30
0.0
 10
163.169196
 20
227.755423
 30
0.0
  0
LWPOLYLINE
  5
162
100
AcDbEntity
  8
Layer_1
 62
7
100
AcDbPolyline
 90
5
 70
0
 10
115.723376
 20
217.983688
 30
0.0
 10
115.723376
 20
211.479075
 30
0.0
 10
112.773196
 20
211.479075
 30
0.0
 10
112.773196
 20
217.983688
 30
0.0
 10
115.723376
 20
217.983688
 30
0.0
  0
LWPOLYLINE
  5
163
100
AcDbEntity
  8
Layer_1
 62
7
100
AcDbPolyline
 90
21
 70
0
 10
145.194689
 20
184.825162
 30
0.0
 10
130.244401
 20
184.825162
 30
0.0
 10
130.244401
 20
187.208946
 30
0.0
 10
126.267786
 20
187.208946
 30
0.0
 10
126.267786
 20
184.825162
 30
0.0
 10
110.539115
 20
184.825162
 30
0.0
 10
110.539115
 20
168.896587
 30
0.0
 10
107.486467
 20
168.896587
 30
0.0
 10
107.486467
 20
164.827476
 30
0.0
 10
110.539115
 20
164.827476
 30
0.0
 10
110.539115
 20
150.273415
 30
0.0
 10
126.267786
 20
150.273415
 30
0.0
 10
126.267786
 20
147.202936
 30
0.0
 10
130.244401
 20
147.202936
 30
0.0
 10
130.244401
 20
150.273415
 30
0.0
 10
145.194689
 20
150.273415
 30
0.0
 10
145.194689
 20
164.827476
 30
0.0
 10
147.944990
 20
164.827476
 30
0.0
 10
147.944990
 20
168.896587
 30
0.0
 10
145.194689
 20
168.896587
 30
0.0
 10
145.194689
 20
184.825162
 30
0.0
  0
LWPOLYLINE
  5
164
100
AcDbEntity
  8
Layer_1
 62
7
100
AcDbPolyline
 90
2
 70
0
 10
172.080798
 20
234.665355
 30
0.0
 10
172.080798
 20
193.756295
 30
0.0
  0
LWPOLYLINE
  5
165
100
AcDbEntity
  8
Layer_1
 62
7
100
AcDbPolyline
 90
5
 70
0
 10
179.965796
 20
234.665355
 30
0.0
 10
179.965796
 20
231.308200
 30
0.0
 10
176.868751
 20
231.308200
 30
0.0
 10
176.868751
 20
234.665355
 30
0.0
 10
172.080798
 20
234.665355
 30
0.0
  0
LWPOLYLINE
  5
166
100
AcDbEntity
  8
Layer_1
 62
7
100
AcDbPolyline
 90
12
 70
0
 10
179.965796
 20
234.665355
 30
0.0
 10
184.839082
 20
234.665355
 30
0.0
 10
184.839082
 20
215.976004
 30
0.0
 10
181.190892
 20
215.976004
 30
0.0
 10
181.190892
 20
211.700504
 30
0.0
 10
184.839082
 20
211.700504
 30
0.0
 10
184.839082
 20
193.756295
 30
0.0
 10
179.965796
 20
193.756295
 30
0.0
 10
179.965796
 20
197.113453
 30
0.0
 10
176.868751
 20
197.113453
 30
0.0
 10
176.868751
 20
193.756295
 30
0.0
 10
172.080798
 20
193.756295
 30
0.0
  0
LWPOLYLINE
  5
167
100
AcDbEntity
  8
Layer_1
 62
7
100
AcDbPolyline
 90
2
 70
0
 10
154.241573
 20
185.908858
 30
0.0
 10
154.241573
 20
151.064351
 30
0.0
  0
LWPOLYLINE
  5
168
100
AcDbEntity
  8
Layer_1
 62
7
100
AcDbPolyline
 90
5
 70
0
 10
162.126577
 20
185.908853
 30
0.0
 10
162.126577
 20
188.997583
 30
0.0
 10
159.029530
 20
188.997583
 30
0.0
 10
159.029530
 20
185.908853
 30
0.0
 10
154.241573
 20
185.908853
 30
0.0
  0
LWPOLYLINE
  5
169
100
AcDbEntity
  8
Layer_1
 62
7
100
AcDbPolyline
 90
12
 70
0
 10
162.126577
 20
185.908853
 30
0.0
 10
166.999864
 20
185.908853
 30
0.0
 10
166.999864
 20
170.458208
 30
0.0
 10
163.782050
 20
170.458208
 30
0.0
 10
163.782050
 20
166.182710
 30
0.0
 10
166.999864
 20
166.182710
 30
0.0
 10
166.999864
 20
151.064351
 30
0.0
 10
162.126577
 20
151.093073
 30
0.0
 10
162.126577
 20
148.088309
 30
0.0
 10
159.029530
 20
148.088309
 30
0.0
 10
159.029530
 20
151.093073
 30
0.0
 10
154.241573
 20
151.064351
 30
0.0
  0
LWPOLYLINE
  5
16a
100
AcDbEntity
  8
Layer_1
 62
7
100
AcDbPolyline
 90
5
 70
0
 10
76.064643
 20
199.294320
 30
0.0
 10
76.064643
 20
211.494715
 30
0.0
 10
81.765039
 20
211.494715
 30
0.0
 10
81.765039
 20
199.294320
 30
0.0
 10
76.064643
 20
199.294320
 30
0.0
  0
LWPOLYLINE
  5
16b
100
AcDbEntity
  8
Layer_1
 62
7
100
AcDbPolyline
 90
5
 70
0
 10
159.029293
 20
199.850072
 30
0.0
 10
159.029293
 20
211.259080
 30
0.0
 10
164.438302
 20
211.259080
 30
0.0
 10
164.438302
 20
199.850072
 30
0.0
 10
159.029293
 20
199.850072
 30
0.0
  0
ENDSEC
  0
SECTION
  2
OBJECTS
  0
DICTIONARY
  5
C
330
0
100
AcDbDictionary
  3
ACAD_GROUP
350
D
  3
ACAD_MLINESTYLE
350
17
  0
DICTIONARY
  5
D
330
C
100
AcDbDictionary
  0
DICTIONARY
  5
1A
330
C
100
AcDbDictionary
  0
DICTIONARY
  5
17
330
C
100
AcDbDictionary
  3
STANDARD
350
18
  0
DICTIONARY
  5
19
330
C
100
AcDbDictionary
  0
ENDSEC
  0
EOF
